<?xml version="1.0" encoding="utf-8"?>
<!-- Generator: Adobe Illustrator 17.1.0, SVG Export Plug-In . SVG Version: 6.00 Build 0)  -->
<!DOCTYPE svg PUBLIC "-//W3C//DTD SVG 1.1//EN" "http://www.w3.org/Graphics/SVG/1.1/DTD/svg11.dtd">
<svg version="1.1" id="Layer_1" xmlns="http://www.w3.org/2000/svg" xmlns:xlink="http://www.w3.org/1999/xlink" x="0px" y="0px"
  viewBox="0 0 188.7 180.3" enable-background="new 0 0 188.7 180.3" xml:space="preserve">
<g class="red-far"></g>
<g class="purple-far"></g>
<g>
 <g>
   <path fill="none" stroke="#000000" stroke-width="0.7196" stroke-linecap="round" stroke-miterlimit="10" d="M0.8,177.7
     c-0.2-0.2-0.3-0.4-0.4-0.6"/>

     <path class="electron-line" fill="none" stroke="#000000" stroke-width="0.7196" stroke-linecap="round" stroke-miterlimit="10" stroke-dasharray="1.4397,2.8793" d="
     M0.4,174.3c1.5-6.4,10.9-19.8,25.6-37.2c14.2-16.8,33.5-37.2,55.4-58.5c28.1-27.2,54.7-50.1,73.7-63.9
     c12.4-9.1,21.6-14.3,25.9-14.3"/>
   <path class="electron-line" fill="none" stroke="#000000" stroke-width="0.7196" stroke-linecap="round" stroke-miterlimit="10" d="M182.3,0.6
     c0.2,0.1,0.4,0.2,0.6,0.4"/>
 </g>
</g>
<circle fill="#2FCC71" cx="96" cy="95.1" r="65.1"/>
<g class="dotted-ellipse">

   <path class="electron-line" fill="none" stroke="#000000" stroke-width="0.7196" stroke-linecap="round" stroke-miterlimit="10" stroke-dasharray="1.4414,2.8829" d="
   M187.7,178.9c-5.8,5.6-49.1-29.6-96.7-78.7C43.4,51.1,9.5,6.7,15.3,1.1c3.3-3.2,18.5,6.6,39.6,24.6C71.3,39.6,91.2,58.4,112,79.8
   c26.6,27.4,48.9,53.4,62.4,71.9C185.1,166.4,190.3,176.4,187.7,178.9z"/>
</g>
<path class="electron-line" fill="#2FCC71" d="M51.2,49c25.3-25.3,66.2-25.3,91.4-0.1c25.2,25.2,25.2,66.2-0.1,91.4"/>
<g class="red-close">
<g class="red-electron">
<circle opacity="0.2" fill="#4D4D4D" cx="115.2" cy="132.3" r="8.9"/>
<circle fill="#C1392B" cx="118" cy="128.1" r="8.9"/>
</g>
</g>
<g>
 <g>
   <path fill="none" stroke="#000000" stroke-width="0.7196" stroke-linecap="round" stroke-miterlimit="10" d="M184.9,2.6
     c0.2,0.2,0.3,0.4,0.4,0.6"/>

     <path fill="none" class="electron-line" stroke="#000000" stroke-width="0.7196" stroke-linecap="round" stroke-miterlimit="10" stroke-dasharray="1.4397,2.8793" d="
     M185.3,6.1c-1.5,6.4-10.9,19.8-25.6,37.2c-14.2,16.8-33.5,37.2-55.4,58.5c-28.1,27.2-54.7,50.1-73.7,63.9
     C18.1,174.7,8.9,179.9,4.7,180"/>
   <path fill="none" stroke="#000000" stroke-width="0.7196" stroke-linecap="round" stroke-miterlimit="10" d="M3.3,179.7
     c-0.2-0.1-0.4-0.2-0.6-0.4"/>
 </g>
</g>
<g class="purple-close">
<g class="purple-electron">
<circle opacity="0.2" fill="#4D4D4D" cx="146.8" cy="58.9" r="8.9"/>
<circle fill="#8F44AD" cx="149.7" cy="54.7" r="8.9"/>
</g>
</g>
</svg>
